<svg width="251" height="92" viewBox="0 0 251 92" fill="none" xmlns="http://www.w3.org/2000/svg">
<g clip-path="url(#clip0_33828_20)">
<path d="M150.892 14.0603H154.877L153.421 24.0797L164.269 9.44015H160.579L162.169 0L150.892 14.0603Z" fill="#272727"/>
<path d="M150.892 14.0603H154.877L153.421 24.0797L164.269 9.44015H160.579L162.169 0L150.892 14.0603Z" fill="#272727"/>
<path d="M131.209 30.1602H104.518V69.5737C104.518 75.5588 93.7471 76.7206 93.7471 82.2046V92.0003H120.439L127.142 85.9035V66.8536C127.142 61.4105 137.913 60.8652 137.913 55.4251V36.2434L131.209 30.1602ZM116.428 76.6462C116.428 78.7768 116.428 80.5381 116.428 80.5381V82.5703H104.45V77.1507C104.45 69.5804 115.128 70.6678 115.128 64.137C115.128 57.6066 115.221 38.9226 115.221 38.9226H124.968L127.202 40.9551V58.1552C127.202 61.5764 126.911 63.0532 122.733 65.7731C118.111 68.7473 116.428 68.5507 116.428 76.6462Z" fill="#272727"/>
<path d="M195.494 38.9219V91.9996H184.92V38.9219H173.453V30.1152H206.972V38.9219H195.494Z" fill="#272727"/>
<path d="M162.311 38.9859V91.9991H151.737V30.125H162.311V38.9859Z" fill="#272727"/>
<path d="M82.1312 30.1602H55.4355V69.5737C55.4355 75.5588 44.665 76.7206 44.665 82.2046V92.0003H71.3604L78.0641 85.9035V66.8536C78.0641 61.4105 88.8348 60.8652 88.8348 55.4251V36.2434L82.1312 30.1602ZM67.3495 76.6462C67.3495 78.7768 67.3495 80.5381 67.3495 80.5381V82.5703H55.3723V77.1507C55.3723 69.5804 66.0497 70.6678 66.0497 64.137C66.0497 57.6066 66.1427 38.9226 66.1427 38.9226H75.8855L78.12 40.9551V58.1552C78.12 61.5764 77.8295 63.0532 73.651 65.7731C69.0439 68.7473 67.3495 68.5507 67.3495 76.6462Z" fill="#272727"/>
<path d="M240.214 30.1602L232.122 52.4344L224.029 30.1602H213.243L226.833 64.0187V92.0003H237.406V64.0187L251 30.1602H240.214Z" fill="#272727"/>
<path d="M0 85.883V36.1826L6.36105 30.1602H33.1757L39.8794 36.213V54.531C39.8794 58.9344 37.4399 59.385 34.237 61.2784C31.5482 62.8501 29.1013 63.6967 29.1013 66.8671V85.917L22.3977 92.0138H6.36105L0 85.883ZM10.7072 82.4959H18.126V80.9344C18.126 80.9344 18.126 76.7952 18.126 75.3015C18.126 72.9879 18.4984 69.7429 23.7533 66.1966C28.0958 63.2666 29.1685 62.1828 29.1685 57.3221V38.6924H10.7072V82.4959Z" fill="#272727"/>
</g>
<defs>
<clipPath id="clip0_33828_20">
<rect width="251" height="92" fill="white"/>
</clipPath>
</defs>
</svg>
