<svg width="272" height="92" viewBox="0 0 272 92" fill="none" xmlns="http://www.w3.org/2000/svg">
<path d="M115.75 47.18C115.75 59.95 105.76 69.36 93.5 69.36C81.24 69.36 71.25 59.95 71.25 47.18C71.25 34.32 81.24 25 93.5 25C105.76 25 115.75 34.32 115.75 47.18ZM106.01 47.18C106.01 39.2 100.22 33.74 93.5 33.74C86.78 33.74 80.99 39.2 80.99 47.18C80.99 55.08 86.78 60.62 93.5 60.62C100.22 60.62 106.01 55.07 106.01 47.18Z" fill="#EA4335"/>
<path d="M163.75 47.18C163.75 59.95 153.76 69.36 141.5 69.36C129.24 69.36 119.25 59.95 119.25 47.18C119.25 34.33 129.24 25 141.5 25C153.76 25 163.75 34.32 163.75 47.18ZM154.01 47.18C154.01 39.2 148.22 33.74 141.5 33.74C134.78 33.74 128.99 39.2 128.99 47.18C128.99 55.08 134.78 60.62 141.5 60.62C148.22 60.62 154.01 55.07 154.01 47.18Z" fill="#FBBC05"/>
<path d="M209.75 26.34V66.16C209.75 82.54 200.09 89.23 188.67 89.23C177.92 89.23 171.45 82.04 169.01 76.16L177.49 72.63C179 76.24 182.7 80.5 188.66 80.5C195.97 80.5 200.5 75.99 200.5 67.5V64.31H200.16C197.98 67 193.78 69.35 188.48 69.35C177.39 69.35 167.23 59.69 167.23 47.26C167.23 34.74 177.39 25 188.48 25C193.77 25 197.97 27.35 200.16 29.96H200.5V26.35H209.75V26.34ZM201.19 47.26C201.19 39.45 195.98 33.74 189.35 33.74C182.63 33.74 177 39.45 177 47.26C177 54.99 182.63 60.62 189.35 60.62C195.98 60.62 201.19 54.99 201.19 47.26Z" fill="#4285F4"/>
<path d="M225 3V68H215.5V3H225Z" fill="#34A853"/>
<path d="M262.02 54.4802L269.58 59.5202C267.14 63.1302 261.26 69.3502 251.1 69.3502C238.5 69.3502 229.09 59.6102 229.09 47.1702C229.09 33.9802 238.58 24.9902 250.01 24.9902C261.52 24.9902 267.15 34.1502 268.99 39.1002L270 41.6202L240.35 53.9002C242.62 58.3502 246.15 60.6202 251.1 60.6202C256.06 60.6202 259.5 58.1802 262.02 54.4802ZM238.75 46.5002L258.57 38.2702C257.48 35.5002 254.2 33.5702 250.34 33.5702C245.39 33.5702 238.5 37.9402 238.75 46.5002Z" fill="#EA4335"/>
<path d="M35.2901 41.4102V32.0002H67.0001C67.3101 33.6402 67.4701 35.5802 67.4701 37.6802C67.4701 44.7402 65.5401 53.4702 59.3201 59.6902C53.2701 65.9902 45.5401 69.3502 35.3001 69.3502C16.3201 69.3502 0.360107 53.8902 0.360107 34.9102C0.360107 15.9302 16.3201 0.470215 35.3001 0.470215C45.8001 0.470215 53.2801 4.59021 58.9001 9.96021L52.2601 16.6002C48.2301 12.8202 42.7701 9.88021 35.2901 9.88021C21.4301 9.88021 10.5901 21.0502 10.5901 34.9102C10.5901 48.7702 21.4301 59.9402 35.2901 59.9402C44.2801 59.9402 49.4001 56.3302 52.6801 53.0502C55.3401 50.3902 57.0901 46.5902 57.7801 41.4002L35.2901 41.4102Z" fill="#4285F4"/>
</svg>
