<svg width="24" height="12" viewBox="0 0 24 12" fill="none" xmlns="http://www.w3.org/2000/svg">
<path d="M0.151995 0.050136C0.11637 0.075194 0.0694951 0.133663 0.0488701 0.175426C0.0113701 0.2506 0.0094951 0.295147 0.0038701 1.17218C-0.0017549 2.03807 0.000120103 2.09654 0.0357451 2.21348C0.0657451 2.31371 0.0901201 2.35269 0.15387 2.39445C0.22887 2.44457 0.279495 2.45013 0.815745 2.45013C1.14199 2.45013 1.42699 2.439 1.46449 2.42229C1.50012 2.40837 1.55449 2.35547 1.58637 2.30814L1.64074 2.22461L1.64637 1.25014C1.65199 0.306284 1.65012 0.270089 1.61262 0.180994C1.53949 0.00558847 1.51699 2.00309e-05 0.830745 2.00309e-05C0.283245 2.00309e-05 0.208245 0.00558847 0.151995 0.050136Z" fill="#747474"/>
<path d="M2.27061 0.05017C2.23499 0.075228 2.18811 0.133697 2.16749 0.17546C2.12999 0.253418 2.12811 0.286829 2.12811 1.22511C2.12811 2.55318 2.05874 2.45017 2.93999 2.45017C3.59436 2.45017 3.62061 2.4446 3.71249 2.29704L3.75936 2.22186V1.22511V0.22836L3.71249 0.153186C3.62061 0.00562249 3.59436 5.40476e-05 2.93999 5.40476e-05C2.39999 5.40476e-05 2.32686 0.00562249 2.27061 0.05017Z" fill="#747474"/>
<path d="M4.44938 0.0250897C4.35751 0.0612845 4.29376 0.133674 4.26376 0.239475C4.24126 0.320217 4.23751 0.503976 4.24126 1.28077L4.24688 2.22741L4.31813 2.33042L4.38751 2.43622L5.04001 2.44458C5.64376 2.45015 5.69438 2.44736 5.75438 2.40003C5.88376 2.29701 5.88751 2.26917 5.88751 1.22509C5.88751 -0.083495 5.95126 0.016737 5.10001 0.00838433C4.77563 0.00560011 4.48126 0.0139528 4.44938 0.0250897Z" fill="#747474"/>
<path d="M6.48382 0.0695645C6.45757 0.0918383 6.41632 0.153091 6.3957 0.205991C6.3582 0.295086 6.35632 0.334065 6.35632 1.24172C6.35632 2.12989 6.3582 2.19114 6.39382 2.27467C6.4632 2.44729 6.47445 2.45007 7.1832 2.45007C7.79257 2.45007 7.82632 2.44729 7.88445 2.39439C8.00257 2.2858 8.00632 2.24961 8.00632 1.23894C8.00632 0.228265 8.00257 0.19207 7.88445 0.0834856C7.82632 0.0305854 7.79257 0.0278012 7.17945 0.0278012C6.65445 0.0305854 6.52507 0.0361539 6.48382 0.0695645Z" fill="#747474"/>
<path d="M8.61195 0.0723938C8.5782 0.0974518 8.5332 0.158705 8.51258 0.208821C8.47695 0.295131 8.47508 0.345247 8.47508 1.24177C8.47508 2.56706 8.4057 2.46126 9.27195 2.47239C9.88508 2.48074 9.8907 2.47796 9.9732 2.41671C10.1232 2.30255 10.1251 2.29142 10.1251 1.2529C10.1251 0.242231 10.1213 0.217173 9.9957 0.0918834C9.93195 0.0278463 9.92633 0.0278463 9.30195 0.0278463C8.76383 0.0278463 8.66258 0.0361989 8.61195 0.0723938Z" fill="#747474"/>
<path d="M10.7344 0.0835363C10.5938 0.186552 10.5938 0.180984 10.5938 1.25291C10.5938 2.32205 10.5938 2.32205 10.7287 2.42507C10.7925 2.47518 10.845 2.47797 11.4112 2.47797C12.0881 2.47797 12.1106 2.4724 12.1931 2.29978C12.2344 2.21347 12.2344 2.20233 12.2344 1.25291C12.2344 -0.0751643 12.3019 0.0278519 11.415 0.0278519C10.8469 0.0278519 10.8037 0.0306361 10.7344 0.0835363Z" fill="#747474"/>
<path d="M12.8888 0.0584787C12.8026 0.0946736 12.7182 0.25059 12.7032 0.395369C12.6976 0.462191 12.6938 0.890961 12.6976 1.35036C12.7032 2.2775 12.7088 2.3137 12.8307 2.42228C12.8869 2.47518 12.9282 2.47797 13.5244 2.47797C14.2219 2.47797 14.2257 2.47797 14.3101 2.30534L14.3532 2.21347V1.26126C14.3532 0.345253 14.3513 0.306274 14.3138 0.233885C14.2932 0.192121 14.2519 0.130868 14.2238 0.100242C14.1751 0.0445576 14.1469 0.0417734 13.5601 0.0362049C13.2207 0.0334207 12.9207 0.0417734 12.8888 0.0584787Z" fill="#747474"/>
<path d="M14.9718 0.0835363C14.9136 0.116947 14.8518 0.2311 14.8311 0.3369C14.8068 0.46219 14.8068 2.07147 14.8311 2.20511C14.8424 2.2608 14.8799 2.34432 14.9174 2.39166L14.983 2.47797H15.6336C16.2468 2.47797 16.288 2.47518 16.3443 2.42228C16.4605 2.31927 16.4624 2.29978 16.4624 1.26683C16.4624 0.233884 16.4605 0.214395 16.3443 0.111378C16.288 0.0584783 16.2468 0.0556941 15.6468 0.0584783C15.2961 0.0584783 14.9924 0.0696152 14.9718 0.0835363Z" fill="#747474"/>
<path d="M17.0606 0.119685C16.935 0.244975 16.9312 0.272817 16.9312 1.27514C16.9312 2.57258 16.8787 2.48906 17.6812 2.50019C18.36 2.51133 18.4125 2.50298 18.5044 2.38047L18.5719 2.28859L18.5775 1.30298C18.5812 0.378618 18.5794 0.314581 18.5456 0.233838C18.4744 0.0612167 18.4462 0.0556483 17.7506 0.0556483C17.13 0.0556483 17.1244 0.0556483 17.0606 0.119685Z" fill="#747474"/>
<path d="M19.2055 0.139206C19.0893 0.242222 19.0874 0.261712 19.0874 1.30023C19.0874 2.18561 19.0893 2.24686 19.1249 2.33039C19.2018 2.51693 19.0368 2.50579 21.5455 2.50579C23.7899 2.50579 23.818 2.50579 23.878 2.45011C23.9962 2.34152 23.9999 2.30533 23.9999 1.29466C23.9999 0.283985 23.9962 0.24779 23.878 0.139206C23.818 0.0835214 23.7899 0.0835214 21.5418 0.0835214C19.318 0.0835214 19.2637 0.0863056 19.2055 0.139206Z" fill="#747474"/>
<path d="M0.15 3.1963C0.114375 3.22135 0.065625 3.28539 0.043125 3.33829C0 3.43295 0 3.44131 0 4.37124C0 5.30117 0 5.30952 0.043125 5.40418C0.133125 5.60465 0.058125 5.59629 1.58437 5.59629C2.88937 5.59629 2.95687 5.59351 3.03187 5.54339C3.17625 5.44316 3.17812 5.43481 3.17812 4.37124C3.17812 3.48864 3.17625 3.43295 3.14062 3.34386C3.12 3.29374 3.07312 3.22692 3.0375 3.19908C2.97562 3.14896 2.9025 3.14618 1.59375 3.14618C0.31875 3.14618 0.21 3.14896 0.15 3.1963Z" fill="#747474"/>
<path d="M20.7563 3.1963C20.7151 3.22971 20.6738 3.29375 20.6494 3.36892C20.6082 3.48864 20.6063 3.5137 20.6063 4.37124C20.6063 5.17309 20.6101 5.25941 20.6419 5.36521C20.6682 5.44873 20.7001 5.49885 20.7544 5.53783C20.8294 5.5963 20.8519 5.5963 22.3069 5.5963C23.9551 5.5963 23.8669 5.60743 23.9569 5.40419C24.0001 5.30952 24.0001 5.30117 24.0001 4.37124C24.0001 3.44131 24.0001 3.43296 23.9569 3.33829C23.8669 3.13505 23.9551 3.14618 22.3032 3.14618C20.9044 3.14618 20.8182 3.14897 20.7563 3.1963Z" fill="#747474"/>
<path d="M3.78562 3.23805C3.66 3.36334 3.65625 3.39118 3.65625 4.38236C3.65625 5.21206 3.65812 5.27888 3.69375 5.38746C3.76312 5.59907 3.75562 5.59628 4.49625 5.59628C5.13187 5.59628 5.1525 5.5935 5.20125 5.53781C5.30437 5.41809 5.30625 5.3986 5.30625 4.38515C5.30625 3.3522 5.30437 3.33271 5.18812 3.22969C5.13187 3.17679 5.09062 3.17401 4.48875 3.17401C3.855 3.17401 3.84937 3.17401 3.78562 3.23805Z" fill="#747474"/>
<path d="M5.92678 3.22416C5.89116 3.24922 5.84428 3.30769 5.82366 3.34945C5.78616 3.42462 5.78428 3.46917 5.77866 4.36569C5.77303 5.40142 5.77678 5.42369 5.89303 5.55177C5.94366 5.60745 5.97366 5.61024 6.55866 5.61859C6.94866 5.62416 7.19616 5.61859 7.23741 5.5991C7.27491 5.58239 7.32928 5.53228 7.35928 5.48495L7.41553 5.39864V4.3991V3.40235L7.36866 3.32718C7.27303 3.17404 7.26928 3.17404 6.60553 3.17404C6.05616 3.17404 5.98303 3.17961 5.92678 3.22416Z" fill="#747474"/>
<path d="M8.07368 3.20187C8.04555 3.21579 8.0043 3.24921 7.98368 3.27705C7.89555 3.39398 7.89368 3.42461 7.89368 4.40466C7.89368 5.28169 7.89555 5.33737 7.93118 5.42368C7.9518 5.4738 7.99493 5.53783 8.02868 5.56846C8.0868 5.62136 8.1243 5.62415 8.71493 5.62415C9.38805 5.62415 9.3918 5.62415 9.48743 5.47101L9.5343 5.39584L9.53993 4.4325C9.54555 3.07937 9.61493 3.19074 8.7468 3.18238C8.40743 3.1796 8.10368 3.18795 8.07368 3.20187Z" fill="#747474"/>
<path d="M10.1307 3.25757C10.0144 3.36059 10.0126 3.38008 10.0126 4.40467C10.0126 5.44318 10.0163 5.47102 10.1457 5.57404C10.2057 5.62137 10.2563 5.62416 10.8601 5.61859L11.5126 5.61024L11.5819 5.50444L11.6532 5.40142L11.6588 4.45478C11.6644 3.40235 11.6607 3.36059 11.5426 3.25479C11.4882 3.20467 11.4376 3.20189 10.8376 3.20189C10.2282 3.20189 10.1869 3.20467 10.1307 3.25757Z" fill="#747474"/>
<path d="M12.2494 3.25477C12.1331 3.36336 12.1312 3.38006 12.1312 4.41858C12.1312 5.30396 12.1331 5.36521 12.1687 5.44874C12.2381 5.62136 12.2494 5.62415 12.9562 5.62415C13.6762 5.62415 13.6762 5.62415 13.7456 5.42368C13.7793 5.32902 13.7812 5.25106 13.7812 4.42693C13.7812 3.46081 13.7775 3.42183 13.6781 3.2854L13.6275 3.21579L12.9694 3.20744C12.3412 3.20187 12.3056 3.20466 12.2494 3.25477Z" fill="#747474"/>
<path d="M14.3831 3.2492C14.25 3.34664 14.25 3.35221 14.25 4.43249V5.39583L14.3006 5.48771C14.3925 5.64641 14.415 5.65198 15.0694 5.65198C15.6206 5.65198 15.6712 5.64641 15.7462 5.59629C15.81 5.55453 15.8344 5.51555 15.8644 5.41532C15.9 5.2956 15.9019 5.23991 15.8962 4.37402C15.8887 3.10442 15.9581 3.20186 15.0656 3.20186C14.5275 3.20186 14.4394 3.21022 14.3831 3.2492Z" fill="#747474"/>
<path d="M16.5094 3.25753C16.3594 3.36611 16.3594 3.37168 16.3594 4.4269C16.3594 5.7494 16.2937 5.65196 17.1844 5.65196C17.8931 5.65196 17.8987 5.64917 17.9775 5.42644C18.0187 5.30393 18.0206 5.29558 18.015 4.39906C18.0094 3.3689 18.0075 3.35219 17.8631 3.25474C17.7919 3.20741 17.7337 3.20184 17.1844 3.20184C16.6219 3.20184 16.5787 3.20463 16.5094 3.25753Z" fill="#747474"/>
<path d="M18.6882 3.22971C18.6001 3.25476 18.5119 3.37727 18.4857 3.50813C18.4726 3.56938 18.4688 3.93133 18.4726 4.49653C18.4782 5.48492 18.4782 5.48214 18.6057 5.59629C18.6619 5.64919 18.7051 5.65198 19.2994 5.65198C19.9988 5.65198 20.0119 5.64919 20.0813 5.47657C20.1169 5.39304 20.1188 5.33179 20.1188 4.41857V3.45244L20.0569 3.35221C20.0138 3.27982 19.9726 3.24641 19.9126 3.22692C19.8113 3.19908 18.7894 3.19908 18.6882 3.22971Z" fill="#747474"/>
<path d="M0.191573 6.31184C0.116573 6.33411 0.022823 6.49838 0.00969796 6.63202C0.00407297 6.69884 0.000322968 7.14153 0.00407297 7.62042C0.00969796 8.44733 0.011573 8.49188 0.0490729 8.56706C0.0696979 8.60882 0.116573 8.66729 0.152198 8.69235C0.212198 8.73968 0.341573 8.74246 2.05907 8.74246C4.08407 8.74246 3.9847 8.75081 4.07095 8.57262L4.11595 8.47796V7.5174C4.11595 6.46219 4.11782 6.47889 3.99782 6.35638C3.94907 6.30905 3.85345 6.30627 2.09095 6.30348C1.06907 6.3007 0.215948 6.30627 0.191573 6.31184Z" fill="#747474"/>
<path d="M4.7418 6.41205C4.61618 6.53734 4.61243 6.5624 4.61243 7.57307C4.61243 8.58653 4.61618 8.61437 4.74555 8.72852C4.80555 8.78142 4.84305 8.78421 5.4468 8.78421C6.15555 8.78421 6.14618 8.78699 6.22493 8.59488C6.26055 8.51135 6.26243 8.44732 6.26243 7.56194C6.26243 6.66542 6.26055 6.6153 6.22493 6.52899C6.1518 6.35358 6.1293 6.34801 5.4318 6.34801C4.81118 6.34801 4.80555 6.34801 4.7418 6.41205Z" fill="#747474"/>
<path d="M6.9357 6.3731C6.84195 6.41765 6.80257 6.46498 6.76695 6.57913C6.73507 6.68493 6.73132 6.77403 6.73132 7.58702C6.73132 8.58099 6.73507 8.60883 6.8607 8.73412C6.92445 8.79816 6.93007 8.79816 7.5507 8.79816C8.24632 8.79816 8.27445 8.79259 8.3457 8.61997C8.37945 8.53922 8.38132 8.46405 8.38132 7.56753V6.60141L8.3232 6.50396C8.29132 6.44827 8.23507 6.39259 8.19757 6.37588C8.11695 6.34247 7.00882 6.34247 6.9357 6.3731Z" fill="#747474"/>
<path d="M9.00947 6.38702C8.9776 6.40651 8.92885 6.46498 8.90072 6.51231L8.8501 6.60419V7.5731V8.54201L8.90072 8.63389C8.9926 8.79259 9.0151 8.79816 9.6751 8.79816C10.3407 8.79816 10.367 8.79259 10.4457 8.62832L10.4907 8.53366V7.56753C10.4907 6.24503 10.5601 6.34804 9.6751 6.34804C9.2101 6.35083 9.0526 6.35918 9.00947 6.38702Z" fill="#747474"/>
<path d="M11.145 6.37866C11.1112 6.39258 11.0587 6.44826 11.0269 6.50116L10.9688 6.60139V7.56752C10.9688 8.48631 10.9706 8.53921 11.0062 8.62552C11.0756 8.79258 11.1056 8.79814 11.7975 8.79814C12.6769 8.79814 12.6075 8.89838 12.615 7.62042C12.6225 6.27286 12.6806 6.36474 11.8125 6.35638C11.4769 6.3536 11.1769 6.36195 11.145 6.37866Z" fill="#747474"/>
<path d="M13.1737 6.46218C13.1324 6.51508 13.0987 6.59025 13.0874 6.65707C13.0743 6.72946 13.0687 7.08863 13.0724 7.65104C13.0781 8.63109 13.0781 8.6283 13.2056 8.74245C13.2618 8.79535 13.3049 8.79814 13.9031 8.79814C14.7918 8.79814 14.7262 8.88445 14.7337 7.71229C14.7412 6.70719 14.7356 6.62645 14.6531 6.49002L14.5912 6.38979L13.9162 6.38143L13.2412 6.37308L13.1737 6.46218Z" fill="#747474"/>
<path d="M15.3169 6.43992C15.1913 6.56521 15.1875 6.59305 15.1875 7.58423C15.1875 8.8956 15.1313 8.80929 15.9788 8.82043C16.3482 8.82599 16.6013 8.81764 16.6444 8.80094C16.6857 8.78423 16.7419 8.73133 16.7719 8.68678L16.8282 8.60047L16.8338 7.62878C16.8394 6.55129 16.8375 6.53736 16.7194 6.43156C16.6632 6.37866 16.6219 6.37588 16.02 6.37588C15.3863 6.37588 15.3807 6.37588 15.3169 6.43992Z" fill="#747474"/>
<path d="M17.4581 6.42596C17.4225 6.45102 17.3756 6.50949 17.355 6.55125C17.3175 6.62921 17.3156 6.66262 17.3156 7.6009C17.3156 8.92898 17.2462 8.82596 18.1275 8.82596C18.7819 8.82596 18.8081 8.82039 18.9 8.67283L18.9469 8.59766L18.9525 7.61483L18.9581 6.632L18.9075 6.54568C18.8119 6.37585 18.8119 6.37585 18.1369 6.37585C17.5875 6.37585 17.5144 6.38142 17.4581 6.42596Z" fill="#747474"/>
<path d="M19.5937 6.39537C19.5787 6.40372 19.5449 6.43713 19.5224 6.47054C19.4268 6.59862 19.4249 6.61532 19.4249 7.59258C19.4249 8.61439 19.4287 8.64502 19.5562 8.75639C19.6218 8.81207 19.6443 8.81207 21.7124 8.81207C23.7805 8.81207 23.803 8.81207 23.8687 8.75639C23.9962 8.64502 23.9999 8.61439 23.9999 7.59258C23.9999 6.60697 23.9999 6.6014 23.8968 6.45941L23.8462 6.3898L21.7349 6.38423C20.5724 6.38145 19.6087 6.38702 19.5937 6.39537Z" fill="#747474"/>
<path d="M3.34313 9.57492C3.21563 9.69186 3.21563 9.68907 3.21 10.6663C3.20625 11.2371 3.21188 11.5879 3.225 11.6603C3.23625 11.7299 3.27 11.8051 3.30938 11.858L3.37688 11.9443H4.24875C5.2275 11.9443 5.19938 11.9499 5.27063 11.7438C5.30438 11.6492 5.30625 11.5712 5.30625 10.7332C5.30625 9.75311 5.30625 9.74754 5.20313 9.60555L5.1525 9.53594L4.27875 9.52759C3.43688 9.52202 3.40125 9.5248 3.34313 9.57492Z" fill="#747474"/>
<path d="M5.89305 9.57772C5.76555 9.69187 5.76555 9.68909 5.75993 10.6691C5.75618 11.2315 5.7618 11.5907 5.77493 11.6631C5.78618 11.7299 5.81993 11.8051 5.8593 11.858L5.9268 11.9443H11.9849C18.0262 11.9443 18.043 11.9443 18.103 11.8886C18.2212 11.78 18.2249 11.7438 18.2249 10.7499C18.2249 9.78097 18.2212 9.74199 18.1218 9.60556L18.0712 9.53595L12.0131 9.53039C6.0318 9.52203 5.95305 9.52203 5.89305 9.57772Z" fill="#747474"/>
<path d="M18.8119 9.57495C18.6844 9.69189 18.6844 9.6891 18.6788 10.6692C18.675 11.2316 18.6806 11.5907 18.6938 11.6631C18.705 11.7299 18.7388 11.8051 18.7781 11.858L18.8456 11.9443H19.7175C20.7019 11.9443 20.6663 11.9527 20.7375 11.7355C20.7731 11.6269 20.775 11.5601 20.775 10.7388C20.775 9.78098 20.7713 9.73922 20.6719 9.60558L20.6213 9.53597L19.7475 9.52762C18.9056 9.52205 18.87 9.52484 18.8119 9.57495Z" fill="#747474"/>
<path d="M21.3618 9.57776C21.2455 9.68078 21.2437 9.70027 21.2437 10.7388C21.2437 11.6242 21.2455 11.6854 21.2812 11.7689C21.3543 11.9499 21.3055 11.9443 22.6162 11.9443C23.7449 11.9443 23.8068 11.9416 23.8612 11.8914C23.9774 11.7884 23.9812 11.7411 23.9812 10.7276C23.9812 9.70583 23.9774 9.67521 23.848 9.57219C23.788 9.52486 23.7112 9.52208 22.603 9.52208C21.4649 9.52208 21.4199 9.52486 21.3618 9.57776Z" fill="#747474"/>
<path d="M0.148223 9.6529C0.0413477 9.78654 0.0375977 9.82274 0.0375977 10.7889C0.0375977 11.755 0.0413477 11.7912 0.148223 11.9248L0.210098 12H1.4026C2.55385 12 2.59885 11.9972 2.65697 11.9443C2.77322 11.8413 2.7751 11.8218 2.7751 10.7889C2.7751 9.75592 2.77322 9.73643 2.65697 9.63341C2.59885 9.58051 2.55385 9.57773 1.4026 9.57773H0.210098L0.148223 9.6529Z" fill="#747474"/>
</svg>
