<svg width="24" height="24" viewBox="0 0 24 24" fill="none" xmlns="http://www.w3.org/2000/svg">
<g clip-path="url(#clip0_3_56)">
<path d="M12 15C13.66 15 14.99 13.66 14.99 12L15 5C15 3.34 13.66 2 12 2C10.34 2 9 3.34 9 5V12C9 13.66 10.34 15 12 15Z" fill="#4285F4"/>
<path d="M11 18.92H13V22H11V18.92Z" fill="#34A853"/>
<path d="M7 12H5C5 13.93 5.78 15.68 7.05 16.95L8.46 15.54C7.56 14.63 7 13.38 7 12Z" fill="#F4B400"/>
<path d="M12 17C10.62 17 9.37005 16.44 8.46005 15.53L7.05005 16.94C7.70015 17.5934 8.47306 18.1118 9.3243 18.4654C10.1755 18.8189 11.0883 19.0006 12.01 19C15.88 19 18.99 15.86 18.99 12H16.99C16.99 14.76 14.76 17 12 17Z" fill="#EA4335"/>
</g>
<defs>
<clipPath id="clip0_3_56">
<rect width="24" height="24" fill="white"/>
</clipPath>
</defs>
</svg>
